<?xml version="1.0" encoding="UTF-8"?>
<svg version="1.1" xmlns="http://www.w3.org/2000/svg" width="536" height="466">
<path d="M0 0 C1.79301488 1.0701846 3.53456629 2.19146781 5.26855469 3.35498047 C8.4301371 5.41612677 11.72763034 7.22770609 15.01293945 9.08276367 C17.5371718 10.51274519 20.04793677 11.96262725 22.55078125 13.4296875 C23.6032605 14.04626221 23.6032605 14.04626221 24.67700195 14.67529297 C26.3125 15.6875 26.3125 15.6875 27.3125 16.6875 C27.40118299 19.64455321 27.42770296 22.57815056 27.41015625 25.53515625 C27.4087413 26.4215831 27.40732635 27.30800995 27.40586853 28.22129822 C27.40025215 31.06423254 27.38769691 33.90708931 27.375 36.75 C27.36998711 38.67252491 27.36542384 40.59505104 27.36132812 42.51757812 C27.35027741 47.24091549 27.33300183 51.96419458 27.3125 56.6875 C26.73604736 57.00275635 26.15959473 57.3180127 25.56567383 57.64282227 C20.95636377 60.18054302 16.4450033 62.80579557 12 65.625 C10.88625 66.29273438 9.7725 66.96046875 8.625 67.6484375 C5.31660324 69.62174712 5.31660324 69.62174712 2.375 71.8515625 C-0.78055767 73.93525955 -2.93638848 75.11914977 -6.6875 75.6875 C-11.86488877 74.27771379 -16.2803154 71.03045412 -20.66064453 68.03759766 C-23.8363909 65.92221854 -27.16516632 64.09975623 -30.5 62.25 C-33.6325634 60.46562844 -36.68779991 58.68730006 -39.6875 56.6875 C-40.11987305 54.70727539 -40.11987305 54.70727539 -40.19921875 52.28515625 C-40.2348291 51.39981201 -40.27043945 50.51446777 -40.30712891 49.60229492 C-40.3407251 48.19040894 -40.3407251 48.19040894 -40.375 46.75 C-40.40770996 45.79520752 -40.44041992 44.84041504 -40.47412109 43.85668945 C-40.56184534 41.13375661 -40.62879514 38.41119377 -40.6875 35.6875 C-40.71714844 34.51445312 -40.74679688 33.34140625 -40.77734375 32.1328125 C-40.80905822 29.6449887 -40.75754202 27.17399188 -40.6875 24.6875 C-40.72875 23.9553125 -40.77 23.223125 -40.8125 22.46875 C-40.8125 20.375 -40.8125 20.375 -39.6875 16.6875 C-36.62951559 14.13716518 -33.2423365 12.44968324 -29.6875 10.6875 C-28.26681934 9.90305942 -26.84995694 9.11165327 -25.4375 8.3125 C-24.70402344 7.92835938 -23.97054687 7.54421875 -23.21484375 7.1484375 C-20.51000228 5.64596913 -20.51000228 5.64596913 -17.50390625 3.3515625 C-11.49379454 -0.91898179 -7.20741065 -3.56160596 0 0 Z " fill="#344DB7" transform="translate(99.6875,220.3125)"/>
<path d="M0 0 C2.89295536 1.44775436 5.6291333 3.10488361 8.375 4.8125 C13.81512112 8.14408497 19.25547073 11.21850671 25 14 C29.1725717 41.92175614 29.1725717 41.92175614 23.84094238 49.68841553 C20.39059513 53.3787311 16.26253034 55.8691398 11.8125 58.1875 C11.18806 58.51419678 10.56362 58.84089355 9.92025757 59.17749023 C-1.25305288 64.80748245 -1.25305288 64.80748245 -7 63 C-14.80024595 59.38738609 -25.86090879 54.13909121 -32 48 C-32.48480879 43.42836417 -32.65636587 38.85879983 -32.78955078 34.26489258 C-32.84609891 32.72468324 -32.9277808 31.1851731 -33.03564453 29.64770508 C-33.39002748 24.49915402 -33.42530432 19.99364498 -32 15 C-28.151799 11.19336746 -23.90191225 9.19099524 -19 7 C-17.67719628 6.17899515 -16.37007076 5.33071134 -15.09765625 4.43359375 C-14.09605469 3.77488281 -13.09445313 3.11617187 -12.0625 2.4375 C-11.04285156 1.75558594 -10.02320312 1.07367188 -8.97265625 0.37109375 C-5.25202119 -1.34499417 -3.88520672 -1.25484938 0 0 Z " fill="#10BFDE" transform="translate(135,168)"/>
<path d="M0 0 C6.93 0 13.86 0 21 0 C21 1.32 21 2.64 21 4 C19.68 4 18.36 4 17 4 C18.10100225 7.02199591 19.20638142 10.04237342 20.3125 13.0625 C20.7755957 14.33383789 20.7755957 14.33383789 21.24804688 15.63085938 C23.0299082 20.48877604 24.91211879 25.26532784 27 30 C31.64249432 20.26843823 31.64249432 20.26843823 30.80859375 9.90234375 C29.95254145 7.8883463 29.00784386 5.94215405 28 4 C26.68 4 25.36 4 24 4 C24 2.68 24 1.36 24 0 C31.59 0 39.18 0 47 0 C47.495 1.98 47.495 1.98 48 4 C46.35 4 44.7 4 43 4 C44.12057319 7.25154331 45.24722944 10.50094672 46.375 13.75 C46.69210938 14.67039063 47.00921875 15.59078125 47.3359375 16.5390625 C47.6453125 17.42851562 47.9546875 18.31796875 48.2734375 19.234375 C48.55622559 20.05131836 48.83901367 20.86826172 49.13037109 21.70996094 C49.95939065 23.89306129 50.91672885 25.93306884 52 28 C53.15558273 25.12882484 54.29766867 22.25246071 55.4375 19.375 C55.76298828 18.56675781 56.08847656 17.75851563 56.42382812 16.92578125 C58.12222454 12.61850786 59.46729499 8.63678449 60 4 C58.68 4 57.36 4 56 4 C55.505 2.515 55.505 2.515 55 1 C56 0 56 0 58.17030334 -0.12025452 C59.12738693 -0.11803391 60.08447052 -0.11581329 61.07055664 -0.11352539 C62.15160172 -0.11344986 63.23264679 -0.11337433 64.34645081 -0.11329651 C66.110485 -0.10555458 66.110485 -0.10555458 67.91015625 -0.09765625 C69.10732773 -0.0962413 70.30449921 -0.09482635 71.53794861 -0.09336853 C75.37949066 -0.08774979 79.22097543 -0.07519411 83.0625 -0.0625 C85.65950437 -0.05748741 88.25650965 -0.05292409 90.85351562 -0.04882812 C97.23569932 -0.03777427 103.61783993 -0.02049708 110 0 C110.495 7.425 110.495 7.425 111 15 C110.01 15.33 109.02 15.66 108 16 C107.75765625 15.44570312 107.5153125 14.89140625 107.265625 14.3203125 C106.76289063 13.23363281 106.76289063 13.23363281 106.25 12.125 C105.76273438 11.04605469 105.76273438 11.04605469 105.265625 9.9453125 C103.71238492 7.55792496 102.6754309 6.94205313 100 6 C97.18503259 5.54724722 97.18503259 5.54724722 94.25 5.375 C92.5175 5.25125 90.785 5.1275 89 5 C89 10.94 89 16.88 89 23 C94.02542497 20.26955759 94.02542497 20.26955759 95.8125 15.8125 C96.204375 14.554375 96.59625 13.29625 97 12 C97.99 12 98.98 12 100 12 C100 20.25 100 28.5 100 37 C99.01 37 98.02 37 97 37 C96.84144531 36.44570312 96.68289063 35.89140625 96.51953125 35.3203125 C96.16955078 34.23363281 96.16955078 34.23363281 95.8125 33.125 C95.59207031 32.40570313 95.37164062 31.68640625 95.14453125 30.9453125 C93.89413453 28.36613706 93.89413453 28.36613706 89 27 C89.495 35.415 89.495 35.415 90 44 C98.63483575 44.83249525 98.63483575 44.83249525 106.25 41.75 C107.76119498 39.37526503 108.69177055 37.77406501 109 35 C109.66 35 110.32 35 111 35 C111 34.34 111 33.68 111 33 C111.99 33 112.98 33 114 33 C113.67 38.61 113.34 44.22 113 50 C98.48 50 83.96 50 69 50 C69 49.01 69 48.02 69 47 C70.98 46.34 72.96 45.68 75 45 C75 32.13 75 19.26 75 6 C72.69 5.34 70.38 4.68 68 4 C64.49732106 7.84130651 63.28813073 12.4780526 61.6875 17.3125 C59.10193949 24.92017377 56.32303037 32.39313142 53.2890625 39.83203125 C51.78450961 43.52958396 50.37637247 47.25320827 49 51 C48.01 51 47.02 51 46 51 C43.87741721 48.06103921 42.83690926 45.47457709 42 42 C41.54649198 40.62464236 41.07561582 39.25492103 40.58984375 37.890625 C40.32236328 37.13652344 40.05488281 36.38242188 39.77929688 35.60546875 C39.36260742 34.43951172 39.36260742 34.43951172 38.9375 33.25 C38.65583984 32.45722656 38.37417969 31.66445312 38.08398438 30.84765625 C37.39098013 28.8978477 36.69571181 26.94884411 36 25 C33.34071208 28.18343742 31.97823301 31.30235728 30.5625 35.1875 C28.56261157 40.55689743 26.40492221 45.80053131 24 51 C22.14453125 50.80859375 22.14453125 50.80859375 20 50 C18.76171875 47.91015625 18.76171875 47.91015625 17.6875 45.0625 C17.26984375 43.98097656 16.8521875 42.89945313 16.421875 41.78515625 C16.08446289 40.88240967 16.08446289 40.88240967 15.74023438 39.96142578 C14.93891693 37.83814599 14.10514915 35.72954855 13.265625 33.62109375 C9.90975797 25.16168103 6.75860321 16.67625203 4 8 C3.67 7.01 3.34 6.02 3 5 C2.01 4.67 1.02 4.34 0 4 C0 2.68 0 1.36 0 0 Z " fill="#2B2B2B" transform="translate(191,205)"/>
<path d="M0 0 C1.13308594 0.05542969 2.26617187 0.11085937 3.43359375 0.16796875 C7.06054844 0.91509425 8.33378346 1.90476416 10.5625 4.8125 C10.5625 5.4725 10.5625 6.1325 10.5625 6.8125 C11.5525 7.1425 12.5425 7.4725 13.5625 7.8125 C15.09765625 9.37109375 15.09765625 9.37109375 16.625 11.25 C18.22328674 13.19803905 19.77823944 15.02823944 21.5625 16.8125 C22.52936623 17.90920256 23.48682279 19.01423466 24.4375 20.125 C24.92992187 20.69863281 25.42234375 21.27226562 25.9296875 21.86328125 C27.84444089 24.14907537 29.69978388 26.48410485 31.5625 28.8125 C31.5625 21.5525 31.5625 14.2925 31.5625 6.8125 C29.5825 6.1525 27.6025 5.4925 25.5625 4.8125 C25.5625 3.4925 25.5625 2.1725 25.5625 0.8125 C40.7425 0.8125 55.9225 0.8125 71.5625 0.8125 C71.5625 2.1325 71.5625 3.4525 71.5625 4.8125 C68.9225 5.1425 66.2825 5.4725 63.5625 5.8125 C63.5625 19.0125 63.5625 32.2125 63.5625 45.8125 C76.21364784 45.80555257 76.21364784 45.80555257 81.5625 42.8125 C82.74585395 39.92931225 82.74585395 39.92931225 83.5625 36.8125 C84.20065344 35.46528717 84.85575371 34.12502882 85.5625 32.8125 C86.5525 32.8125 87.5425 32.8125 88.5625 32.8125 C87.9025 38.7525 87.2425 44.6925 86.5625 50.8125 C72.3725 50.8125 58.1825 50.8125 43.5625 50.8125 C43.2325 49.8225 42.9025 48.8325 42.5625 47.8125 C44.8725 47.4825 47.1825 47.1525 49.5625 46.8125 C49.5625 32.9525 49.5625 19.0925 49.5625 4.8125 C43.82273985 4.59276252 43.82273985 4.59276252 38.5625 5.8125 C37.4209378 8.0956244 37.40915628 9.44729305 37.35717773 11.98681641 C37.33723251 12.84755768 37.31728729 13.70829895 37.29673767 14.59512329 C37.28002518 15.52537323 37.26331268 16.45562317 37.24609375 17.4140625 C37.22531265 18.36566254 37.20453156 19.31726257 37.18312073 20.29769897 C37.11761867 23.34422432 37.0587372 26.39083743 37 29.4375 C36.95681541 31.50000916 36.91320114 33.56250937 36.86914062 35.625 C36.7619366 40.68740954 36.66067098 45.74990755 36.5625 50.8125 C31.765625 50.02148438 31.765625 50.02148438 29.9375 48.140625 C29.48375 47.45484375 29.03 46.7690625 28.5625 46.0625 C26.72091768 43.40243665 25.06341014 41.31341014 22.75 39 C20.5625 36.8125 20.5625 36.8125 19.5625 33.8125 C18.0775 33.3175 18.0775 33.3175 16.5625 32.8125 C15.06553472 31.11308799 13.63624919 29.35337114 12.25 27.5625 C8.93846676 23.39742311 5.74911487 20.05712652 1.5625 16.8125 C1.2325 16.1525 0.9025 15.4925 0.5625 14.8125 C0.8925 25.0425 1.2225 35.2725 1.5625 45.8125 C3.5425 46.4725 5.5225 47.1325 7.5625 47.8125 C7.5625 48.8025 7.5625 49.7925 7.5625 50.8125 C1.6225 50.8125 -4.3175 50.8125 -10.4375 50.8125 C-10.1075 49.4925 -9.7775 48.1725 -9.4375 46.8125 C-7.7875 46.8125 -6.1375 46.8125 -4.4375 46.8125 C-4.1075 33.9425 -3.7775 21.0725 -3.4375 7.8125 C-4.4275 7.4825 -5.4175 7.1525 -6.4375 6.8125 C-6.4375 6.1525 -6.4375 5.4925 -6.4375 4.8125 C-7.7575 4.8125 -9.0775 4.8125 -10.4375 4.8125 C-10.125 2.875 -10.125 2.875 -9.4375 0.8125 C-6.00337484 -0.33220839 -3.60491742 -0.2168679 0 0 Z " fill="#1D1D1D" transform="translate(316.4375,204.1875)"/>
<path d="M0 0 C1.95703125 0.953125 1.95703125 0.953125 3.8125 2.25 C7.14475094 4.48619864 10.48149028 6.26959378 14.140625 7.91015625 C16.58084323 9.34045223 18.17034517 10.83161459 20 13 C20.9178069 17.08039304 20.78636289 21.20256644 20.8125 25.375 C20.86986328 26.4990625 20.92722656 27.623125 20.98632812 28.78125 C21.06727795 36.83813865 21.06727795 36.83813865 18.17626953 39.98535156 C15.85237431 41.55167958 13.52692435 42.79298027 11 44 C9.81103471 44.71823336 8.6278812 45.4462541 7.453125 46.1875 C6.39609375 46.785625 5.3390625 47.38375 4.25 48 C2.64898437 48.928125 2.64898437 48.928125 1.015625 49.875 C-2 51 -2 51 -4.44921875 50.4375 C-5.29097656 49.963125 -6.13273437 49.48875 -7 49 C-8.12535156 48.38125 -9.25070313 47.7625 -10.41015625 47.125 C-11.62951253 46.41995688 -12.84693086 45.71155267 -14.0625 45 C-17.66523223 42.90441708 -21.25833123 40.84004818 -25 39 C-25.26210888 34.62614201 -25.42144886 30.25430191 -25.5625 25.875 C-25.63791016 24.6375 -25.71332031 23.4 -25.79101562 22.125 C-26.00832005 13.14308359 -26.00832005 13.14308359 -23.15869141 9.91259766 C-20.83767264 8.35279149 -18.54482107 7.15228184 -16 6 C-14.97390625 5.37351563 -13.9478125 4.74703125 -12.890625 4.1015625 C-12.01921875 3.61429688 -11.1478125 3.12703125 -10.25 2.625 C-9.36828125 2.12226563 -8.4865625 1.61953125 -7.578125 1.1015625 C-4.74584158 -0.10859496 -3.04443702 -0.3848721 0 0 Z " fill="#140B3F" transform="translate(159,225)"/>
<path d="M0 0 C13.2 0 26.4 0 40 0 C40.495 6.93 40.495 6.93 41 14 C40.01 14.33 39.02 14.66 38 15 C37.75765625 14.44570312 37.5153125 13.89140625 37.265625 13.3203125 C36.93046875 12.59585938 36.5953125 11.87140625 36.25 11.125 C35.76273437 10.04605469 35.76273437 10.04605469 35.265625 8.9453125 C33.71238492 6.55792496 32.6754309 5.94205313 30 5 C27.18503259 4.54724722 27.18503259 4.54724722 24.25 4.375 C22.5175 4.25125 20.785 4.1275 19 4 C19 9.94 19 15.88 19 22 C24.02542497 19.26955759 24.02542497 19.26955759 25.8125 14.8125 C26.204375 13.554375 26.59625 12.29625 27 11 C27.99 11 28.98 11 30 11 C30 19.25 30 27.5 30 36 C29.01 36 28.02 36 27 36 C26.84144531 35.44570312 26.68289063 34.89140625 26.51953125 34.3203125 C26.28621094 33.59585938 26.05289062 32.87140625 25.8125 32.125 C25.59207031 31.40570313 25.37164062 30.68640625 25.14453125 29.9453125 C23.89413453 27.36613706 23.89413453 27.36613706 19 26 C19.495 34.415 19.495 34.415 20 43 C28.63483575 43.83249525 28.63483575 43.83249525 36.25 40.75 C37.76119498 38.37526503 38.69177055 36.77406501 39 34 C39.66 34 40.32 34 41 34 C41 33.34 41 32.68 41 32 C41.99 32 42.98 32 44 32 C43.67 37.61 43.34 43.22 43 49 C28.48 49 13.96 49 -1 49 C-1 48.01 -1 47.02 -1 46 C0.98 45.34 2.96 44.68 5 44 C5.12352165 38.50081611 5.2143009 33.00243782 5.2746582 27.50219727 C5.29981578 25.63096046 5.33394593 23.75982205 5.37719727 21.88891602 C5.43779677 19.20043697 5.46619603 16.51325564 5.48828125 13.82421875 C5.51408768 12.98662521 5.5398941 12.14903168 5.56648254 11.28605652 C5.62443407 8.650565 5.62443407 8.650565 5 5 C2.59852539 3.01295494 2.59852539 3.01295494 0 2 C0 1.34 0 0.68 0 0 Z " fill="#131313" transform="translate(261,206)"/>
<path d="M0 0 C9.24 0 18.48 0 28 0 C28 1.32 28 2.64 28 4 C25.36 4.33 22.72 4.66 20 5 C20 18.2 20 31.4 20 45 C32.65114784 44.99305257 32.65114784 44.99305257 38 42 C39.18335395 39.11681225 39.18335395 39.11681225 40 36 C40.63815344 34.65278717 41.29325371 33.31252882 42 32 C42.99 32 43.98 32 45 32 C44.34 37.94 43.68 43.88 43 50 C28.81 50 14.62 50 0 50 C-0.495 48.515 -0.495 48.515 -1 47 C2.465 46.505 2.465 46.505 6 46 C6 32.14 6 18.28 6 4 C4.02 4 2.04 4 0 4 C0 2.68 0 1.36 0 0 Z " fill="#0E0E0E" transform="translate(360,205)"/>
<path d="M0 0 C2.89295536 1.44775436 5.6291333 3.10488361 8.375 4.8125 C13.81512112 8.14408497 19.25547073 11.21850671 25 14 C29.1725717 41.92175614 29.1725717 41.92175614 23.84094238 49.68841553 C20.39059513 53.3787311 16.26253034 55.8691398 11.8125 58.1875 C11.18806 58.51419678 10.56362 58.84089355 9.92025757 59.17749023 C-1.25305288 64.80748245 -1.25305288 64.80748245 -7 63 C-14.80024595 59.38738609 -25.86090879 54.13909121 -32 48 C-32.48480879 43.42836417 -32.65636587 38.85879983 -32.78955078 34.26489258 C-32.84609891 32.72468324 -32.9277808 31.1851731 -33.03564453 29.64770508 C-33.39002748 24.49915402 -33.42530432 19.99364498 -32 15 C-28.151799 11.19336746 -23.90191225 9.19099524 -19 7 C-17.67719628 6.17899515 -16.37007076 5.33071134 -15.09765625 4.43359375 C-14.09605469 3.77488281 -13.09445313 3.11617187 -12.0625 2.4375 C-11.04285156 1.75558594 -10.02320312 1.07367188 -8.97265625 0.37109375 C-5.25202119 -1.34499417 -3.88520672 -1.25484938 0 0 Z M-7 1 C-7 1.66 -7 2.32 -7 3 C-9 4 -11 5 -13 6 C-13 6.66 -13 7.32 -13 8 C-15.60259179 9.40973722 -18.20803084 10.42177173 -21 11.375 C-24.47435274 12.66251619 -26.71379038 13.9822033 -29 17 C-30.13768642 20.36375794 -30.11496253 23.54764413 -30.09765625 27.078125 C-30.09443359 28.23828125 -30.09121094 29.3984375 -30.08789062 30.59375 C-30.07951172 31.8003125 -30.07113281 33.006875 -30.0625 34.25 C-30.05798828 35.47203125 -30.05347656 36.6940625 -30.04882812 37.953125 C-30.03704815 40.96879946 -30.02059853 43.98437498 -30 47 C-29.01 47 -28.02 47 -27 47 C-27 45.35 -27 43.7 -27 42 C-25.68 43.32 -24.36 44.64 -23 46 C-23.66 46 -24.32 46 -25 46 C-24.67 47.32 -24.34 48.64 -24 50 C-23.01 49.505 -23.01 49.505 -22 49 C-21.29875 49.94875 -20.5975 50.8975 -19.875 51.875 C-17.26413133 55.01839713 -15.0239801 56.05821742 -11 57 C-10.21625 57.20625 -9.4325 57.4125 -8.625 57.625 C-8.08875 57.74875 -7.5525 57.8725 -7 58 C-7 58.66 -7 59.32 -7 60 C-2.6822542 59.49202991 1.03302114 58.80317221 5 57 C5 56.34 5 55.68 5 55 C5.70125 54.87625 6.4025 54.7525 7.125 54.625 C10.23660216 53.94856475 13.07116177 53.2647256 16 52 C16.96877057 49.96756452 16.96877057 49.96756452 17 48 C15.35 48 13.7 48 12 48 C12 47.01 12 46.02 12 45 C14.31 45 16.62 45 19 45 C19.33 44.01 19.66 43.02 20 42 C19.34 42 18.68 42 18 42 C18.33 41.01 18.66 40.02 19 39 C19.07029121 36.42734182 19.09370832 33.88358569 19.0625 31.3125 C19.05798828 30.61060547 19.05347656 29.90871094 19.04882812 29.18554688 C19.03706927 27.45699462 19.01913454 25.72848635 19 24 C17.68 24.33 16.36 24.66 15 25 C15 29.95 15 34.9 15 40 C13.68 40 12.36 40 11 40 C11.33 34.06 11.66 28.12 12 22 C14.31 22 16.62 22 19 22 C18.505 20.515 18.505 20.515 18 19 C17.071875 19.185625 16.14375 19.37125 15.1875 19.5625 C12 20 12 20 9 19 C9.495 17.515 9.495 17.515 10 16 C12.64 16 15.28 16 18 16 C17.78771488 14.06276459 17.78771488 14.06276459 17 12 C15.30263412 10.6536679 15.30263412 10.6536679 13.1875 9.75 C12.50042969 9.41484375 11.81335938 9.0796875 11.10546875 8.734375 C8.74216921 7.78044278 8.74216921 7.78044278 5 8 C4.505 6.515 4.505 6.515 4 5 C1.525 4.505 1.525 4.505 -1 4 C-1.33 3.01 -1.66 2.02 -2 1 C-3.65 1 -5.3 1 -7 1 Z " fill="#19BEDE" transform="translate(135,168)"/>
<path d="M0 0 C1.03125 0.04833984 2.0625 0.09667969 3.125 0.14648438 C4.74535156 0.2305957 4.74535156 0.2305957 6.3984375 0.31640625 C7.48640625 0.36861328 8.574375 0.42082031 9.6953125 0.47460938 C12.3882956 0.604534 15.08093086 0.73950787 17.7734375 0.87890625 C18.1034375 2.19890625 18.4334375 3.51890625 18.7734375 4.87890625 C16.7934375 4.87890625 14.8134375 4.87890625 12.7734375 4.87890625 C12.7734375 18.40890625 12.7734375 31.93890625 12.7734375 45.87890625 C13.4334375 45.87890625 14.0934375 45.87890625 14.7734375 45.87890625 C14.7734375 46.53890625 14.7734375 47.19890625 14.7734375 47.87890625 C16.0934375 47.87890625 17.4134375 47.87890625 18.7734375 47.87890625 C18.7734375 48.86890625 18.7734375 49.85890625 18.7734375 50.87890625 C10.1934375 50.87890625 1.6134375 50.87890625 -7.2265625 50.87890625 C-6.8965625 49.55890625 -6.5665625 48.23890625 -6.2265625 46.87890625 C-4.2465625 46.38390625 -4.2465625 46.38390625 -2.2265625 45.87890625 C-2.2265625 32.67890625 -2.2265625 19.47890625 -2.2265625 5.87890625 C-3.8765625 5.54890625 -5.5265625 5.21890625 -7.2265625 4.87890625 C-7.2265625 3.55890625 -7.2265625 2.23890625 -7.2265625 0.87890625 C-4.62765096 -0.42054952 -2.89989594 -0.14340145 0 0 Z " fill="#161616" transform="translate(413.2265625,204.12109375)"/>
<path d="M0 0 C6.93 0 13.86 0 21 0 C21 1.32 21 2.64 21 4 C19.68 4 18.36 4 17 4 C18.10100225 7.02199591 19.20638142 10.04237342 20.3125 13.0625 C20.7755957 14.33383789 20.7755957 14.33383789 21.24804688 15.63085938 C23.0299082 20.48877604 24.91211879 25.26532784 27 30 C27.66 30 28.32 30 29 30 C29.66 28.68 30.32 27.36 31 26 C32.68063934 29.36127867 31.10608098 32.59327058 30 36 C28.11568697 41.04578642 26.06032792 46.0241137 24 51 C22.14453125 50.80859375 22.14453125 50.80859375 20 50 C18.76171875 47.91015625 18.76171875 47.91015625 17.6875 45.0625 C17.26984375 43.98097656 16.8521875 42.89945313 16.421875 41.78515625 C16.08446289 40.88240967 16.08446289 40.88240967 15.74023438 39.96142578 C14.93891693 37.83814599 14.10514915 35.72954855 13.265625 33.62109375 C9.90975797 25.16168103 6.75860321 16.67625203 4 8 C3.67 7.01 3.34 6.02 3 5 C2.01 4.67 1.02 4.34 0 4 C0 2.68 0 1.36 0 0 Z " fill="#1D1D1D" transform="translate(191,205)"/>
<path d="M0 0 C0 0.66 0 1.32 0 2 C-3.46153846 5 -3.46153846 5 -6 5 C-6 5.66 -6 6.32 -6 7 C-7.609375 8.2890625 -7.609375 8.2890625 -9.75 9.625 C-10.44609375 10.07101563 -11.1421875 10.51703125 -11.859375 10.9765625 C-14 12 -14 12 -18 12 C-18.33 12.99 -18.66 13.98 -19 15 C-19.99 15.495 -19.99 15.495 -21 16 C-22.18225173 19.28684103 -22.19750537 22.6130136 -22.31640625 26.078125 C-22.35830078 27.23828125 -22.40019531 28.3984375 -22.44335938 29.59375 C-22.48267578 30.8003125 -22.52199219 32.006875 -22.5625 33.25 C-22.60568359 34.47203125 -22.64886719 35.6940625 -22.69335938 36.953125 C-22.79937355 39.9686392 -22.90143936 42.98423448 -23 46 C-22.01 46 -21.02 46 -20 46 C-20 44.35 -20 42.7 -20 41 C-18.68 41.66 -17.36 42.32 -16 43 C-16 43.66 -16 44.32 -16 45 C-16.66 45 -17.32 45 -18 45 C-17.67 45.99 -17.34 46.98 -17 48 C-16.34 47.34 -15.68 46.68 -15 46 C-14.5978125 46.928125 -14.5978125 46.928125 -14.1875 47.875 C-13.04443152 50.2995233 -13.04443152 50.2995233 -10 52 C-10 52.66 -10 53.32 -10 54 C-9.278125 53.938125 -8.55625 53.87625 -7.8125 53.8125 C-4.43800685 54.03746621 -2.69406089 54.99869763 0 57 C0 57.66 0 58.32 0 59 C1.81495662 58.55149342 3.62693134 58.09090429 5.4375 57.625 C6.44683594 57.36976563 7.45617187 57.11453125 8.49609375 56.8515625 C11.15570324 56.27426046 11.15570324 56.27426046 12 54 C15.98449687 52.04534116 18.52274716 51 23 51 C23 50.34 23 49.68 23 49 C23.99 49 24.98 49 26 49 C26 48.34 26 47.68 26 47 C27.65 47 29.3 47 31 47 C26.26805036 50.65398341 21.17527465 53.66441894 16.0625 56.75 C15.07314453 57.36488281 14.08378906 57.97976562 13.06445312 58.61328125 C12.10603516 59.18949219 11.14761719 59.76570313 10.16015625 60.359375 C9.29011963 60.89014648 8.42008301 61.42091797 7.52368164 61.96777344 C4.49775745 63.20542532 3.0778539 62.97176714 0 62 C-7.80024595 58.38738609 -18.86090879 53.13909121 -25 47 C-25.48480879 42.42836417 -25.65636587 37.85879983 -25.78955078 33.26489258 C-25.84609891 31.72468324 -25.9277808 30.1851731 -26.03564453 28.64770508 C-26.39008475 23.49832202 -26.43017344 18.99333157 -25 14 C-21.08178319 10.13280435 -17.03514413 8.236747 -12 6 C-10.08684593 4.8619593 -8.18715593 3.70040005 -6.3125 2.5 C-2.25 0 -2.25 0 0 0 Z " fill="#65C0D2" transform="translate(128,169)"/>
<path d="M0 0 C0.99 0 1.98 0 3 0 C2.67 5.61 2.34 11.22 2 17 C-10.21 17 -22.42 17 -35 17 C-35 16.67 -35 16.34 -35 16 C-33.17662109 15.90912109 -33.17662109 15.90912109 -31.31640625 15.81640625 C-29.73175772 15.73201668 -28.14712298 15.6473679 -26.5625 15.5625 C-25.76005859 15.52318359 -24.95761719 15.48386719 -24.13085938 15.44335938 C-20.24760439 15.5945704 -20.24760439 15.5945704 -17 14 C-19.475 13.505 -19.475 13.505 -22 13 C-21.67 12.34 -21.34 11.68 -21 11 C-19.67935547 11.08701172 -19.67935547 11.08701172 -18.33203125 11.17578125 C-11.11437767 11.63363273 -11.11437767 11.63363273 -4.75 8.75 C-3.23880502 6.37526503 -2.30822945 4.77406501 -2 2 C-1.34 2 -0.68 2 0 2 C0 1.34 0 0.68 0 0 Z " fill="#2D2D2D" transform="translate(302,238)"/>
<path d="M0 0 C0.99 0 1.98 0 3 0 C2.34 5.94 1.68 11.88 1 18 C-13.19 18 -27.38 18 -42 18 C-42 17.67 -42 17.34 -42 17 C-32.43 17 -22.86 17 -13 17 C-13 16.34 -13 15.68 -13 15 C-15.64 14.67 -18.28 14.34 -21 14 C-21 13.67 -21 13.34 -21 13 C-20.10796875 12.95101562 -19.2159375 12.90203125 -18.296875 12.8515625 C-17.12640625 12.77679688 -15.9559375 12.70203125 -14.75 12.625 C-13.00976562 12.52058594 -13.00976562 12.52058594 -11.234375 12.4140625 C-8.26399844 12.0337969 -6.4422784 11.68991776 -4 10 C-2.81664605 7.11681225 -2.81664605 7.11681225 -2 4 C-1.36184656 2.65278717 -0.70674629 1.31252882 0 0 Z " fill="#303030" transform="translate(402,237)"/>
<path d="M0 0 C0.33 0 0.66 0 1 0 C1 10.56 1 21.12 1 32 C1.66 32 2.32 32 3 32 C3.33 31.01 3.66 30.02 4 29 C4.33 31.97 4.66 34.94 5 38 C6.98 38.66 8.96 39.32 11 40 C11 40.99 11 41.98 11 43 C5.06 43 -0.88 43 -7 43 C-6.67 41.68 -6.34 40.36 -6 39 C-4.35 39 -2.7 39 -1 39 C-0.67 26.13 -0.34 13.26 0 0 Z " fill="#292929" transform="translate(313,212)"/>
<path d="M0 0 C5.74586722 0.46220698 9.60021657 2.84312845 14.375 5.8125 C15.81870553 6.6966398 17.26401346 7.57816854 18.7109375 8.45703125 C19.65912354 9.0444812 19.65912354 9.0444812 20.62646484 9.64379883 C24.0053613 11.57444786 27.51927054 13.25963527 31 15 C31 26.22 31 37.44 31 49 C30.67 49 30.34 49 30 49 C30 38.44 30 27.88 30 17 C28.35 16.34 26.7 15.68 25 15 C24.071875 14.525625 23.14375 14.05125 22.1875 13.5625 C19.6798712 12.3332702 17.30725157 11.36376931 14.6875 10.4375 C11 9 11 9 10 7 C9.175 6.67 8.35 6.34 7.5 6 C5 5 5 5 4 3 C1.47266765 2.34444881 1.47266765 2.34444881 -1 2 C-0.67 1.34 -0.34 0.68 0 0 Z " fill="#69C0CF" transform="translate(129,167)"/>
<path d="M0 0 C3.02006235 1.52964197 5.72414844 3.1511408 8.43359375 5.17578125 C7.44359375 5.83578125 6.45359375 6.49578125 5.43359375 7.17578125 C5.43359375 6.51578125 5.43359375 5.85578125 5.43359375 5.17578125 C2.79359375 5.17578125 0.15359375 5.17578125 -2.56640625 5.17578125 C-2.89640625 4.51578125 -3.22640625 3.85578125 -3.56640625 3.17578125 C-2.90640625 3.17578125 -2.24640625 3.17578125 -1.56640625 3.17578125 C-1.56640625 2.51578125 -1.56640625 1.85578125 -1.56640625 1.17578125 C-2.55640625 1.17578125 -3.54640625 1.17578125 -4.56640625 1.17578125 C-4.56640625 2.16578125 -4.56640625 3.15578125 -4.56640625 4.17578125 C-5.55640625 4.17578125 -6.54640625 4.17578125 -7.56640625 4.17578125 C-7.89640625 5.16578125 -8.22640625 6.15578125 -8.56640625 7.17578125 C-9.22640625 7.17578125 -9.88640625 7.17578125 -10.56640625 7.17578125 C-10.56640625 7.83578125 -10.56640625 8.49578125 -10.56640625 9.17578125 C-13.56826457 10.84348032 -16.199471 11.5636112 -19.56640625 12.17578125 C-22.2396171 12.81794922 -24.90181381 13.49834249 -27.56640625 14.17578125 C-26.03620922 11.1153872 -23.39602906 10.31919261 -20.41796875 8.7734375 C-18.2337632 7.54968398 -16.3020864 6.30788082 -14.27734375 4.859375 C-5.39807852 -1.24752965 -5.39807852 -1.24752965 0 0 Z " fill="#4959AB" transform="translate(96.56640625,218.82421875)"/>
<path d="M0 0 C1.32 0.33 2.64 0.66 4 1 C4 11.56 4 22.12 4 33 C2.35 33 0.7 33 -1 33 C-1 33.66 -1 34.32 -1 35 C-1.66 35 -2.32 35 -3 35 C-3 34.34 -3 33.68 -3 33 C-4.32 33 -5.64 33 -7 33 C-7 32.34 -7 31.68 -7 31 C-4.03 31.33 -1.06 31.66 2 32 C1.835 31.08863281 1.67 30.17726562 1.5 29.23828125 C0.7372844 23.90598609 0.9327061 18.56091784 1 13.1875 C1.02543281 11.11854101 1.04649185 9.04952213 1.0625 6.98046875 C1.07410156 6.07192139 1.08570313 5.16337402 1.09765625 4.22729492 C1.14984779 1.96002422 1.14984779 1.96002422 0 0 Z " fill="#30BAD7" transform="translate(155,183)"/>
<path d="M0 0 C1.65 0 3.3 0 5 0 C0.26805036 3.65398341 -4.82472535 6.66441894 -9.9375 9.75 C-10.92685547 10.36488281 -11.91621094 10.97976562 -12.93554688 11.61328125 C-13.89396484 12.18949219 -14.85238281 12.76570312 -15.83984375 13.359375 C-16.70988037 13.89014648 -17.57991699 14.42091797 -18.47631836 14.96777344 C-21.51232279 16.2095483 -22.91294072 15.98587763 -26 15 C-27.96876871 14.04085627 -29.90684171 13.0166077 -31.8125 11.9375 C-32.78832031 11.38964844 -33.76414062 10.84179688 -34.76953125 10.27734375 C-35.50558594 9.85582031 -36.24164063 9.43429688 -37 9 C-33.25 7.875 -33.25 7.875 -31 9 C-31 9.66 -31 10.32 -31 11 C-22.79999257 11.31515028 -22.79999257 11.31515028 -15 9 C-14.67 8.34 -14.34 7.68 -14 7 C-10.01550313 5.04534116 -7.47725284 4 -3 4 C-3 3.34 -3 2.68 -3 2 C-2.01 2 -1.02 2 0 2 C0 1.34 0 0.68 0 0 Z " fill="#77CADA" transform="translate(154,216)"/>
<path d="M0 0 C0.66 0 1.32 0 2 0 C2.33 5.28 2.66 10.56 3 16 C5.31 16 7.62 16 10 16 C10.66 15.34 11.32 14.68 12 14 C14.625 14.375 14.625 14.375 17 15 C17 15.66 17 16.32 17 17 C12.00703705 19.9445679 7.66442374 20.63495936 2 21 C-0.06723714 17.89914429 -0.24497423 17.27068319 -0.1953125 13.76953125 C-0.18886719 12.96708984 -0.18242188 12.16464844 -0.17578125 11.33789062 C-0.15902344 10.50451172 -0.14226562 9.67113281 -0.125 8.8125 C-0.11597656 7.96751953 -0.10695313 7.12253906 -0.09765625 6.25195312 C-0.07410703 4.16784757 -0.03823647 2.08388783 0 0 Z " fill="#00C1DE" transform="translate(110,193)"/>
<path d="M0 0 C1.32 0.66 2.64 1.32 4 2 C4 2.66 4 3.32 4 4 C3.34 4 2.68 4 2 4 C2.33 4.99 2.66 5.98 3 7 C3.66 6.34 4.32 5.68 5 5 C5.268125 5.61875 5.53625 6.2375 5.8125 6.875 C6.95556848 9.2995233 6.95556848 9.2995233 10 11 C10 11.66 10 12.32 10 13 C11.0828125 12.87625 11.0828125 12.87625 12.1875 12.75 C15.83548794 13.07426559 17.34568298 14.57319587 20 17 C18.35 17 16.7 17 15 17 C15 16.34 15 15.68 15 15 C13.906875 14.979375 12.81375 14.95875 11.6875 14.9375 C5.57467257 14.23512845 0.91245287 10.45858355 -4 7 C-2.68 6.34 -1.36 5.68 0 5 C0 3.35 0 1.7 0 0 Z " fill="#40BCD7" transform="translate(108,210)"/>
<path d="M0 0 C0.99 0.33 1.98 0.66 3 1 C2.34 1 1.68 1 1 1 C0.938125 1.763125 0.87625 2.52625 0.8125 3.3125 C0 6 0 6 -2.3125 7.875 C-5.18674892 9.07817396 -6.17347829 9.15154588 -9 8 C-9 8.99 -9 9.98 -9 11 C-9.66 11 -10.32 11 -11 11 C-11 10.34 -11 9.68 -11 9 C-11.66 9 -12.32 9 -13 9 C-12.67 10.98 -12.34 12.96 -12 15 C-12.99 15 -13.98 15 -15 15 C-15.25 11.6875 -15.25 11.6875 -15 8 C-12.80327383 5.46531595 -11.37332959 5.05560228 -8.0625 4.5625 C-4.40767649 3.89120589 -2.83918777 2.30204414 0 0 Z " fill="#02C0E0" transform="translate(121,177)"/>
<path d="M0 0 C0.66 0 1.32 0 2 0 C2.0289337 3.79165074 2.04677601 7.58327327 2.0625 11.375 C2.07087891 12.45523437 2.07925781 13.53546875 2.08789062 14.6484375 C2.09111328 15.6796875 2.09433594 16.7109375 2.09765625 17.7734375 C2.10289307 18.72653809 2.10812988 19.67963867 2.11352539 20.66162109 C2 23 2 23 1 25 C0.34 25 -0.32 25 -1 25 C-1.74507544 18.62694402 -2.10349817 12.41688675 -2 6 C-1.67 6 -1.34 6 -1 6 C-0.67 4.02 -0.34 2.04 0 0 Z " fill="#3549A9" transform="translate(61,248)"/>
<path d="M0 0 C0 0.66 0 1.32 0 2 C-3.46153846 5 -3.46153846 5 -6 5 C-6 5.66 -6 6.32 -6 7 C-10.93286751 11.21130444 -15.62826995 12.65865732 -22 13 C-19.86979193 10.71464143 -17.7462071 9.10448528 -15.05859375 7.51953125 C-14.31029297 7.07802734 -13.56199219 6.63652344 -12.79101562 6.18164062 C-12.01435547 5.72982422 -11.23769531 5.27800781 -10.4375 4.8125 C-9.65697266 4.34908203 -8.87644531 3.88566406 -8.07226562 3.40820312 C-2.25472892 0 -2.25472892 0 0 0 Z " fill="#55BFD3" transform="translate(128,169)"/>
<path d="M0 0 C0.99 0 1.98 0 3 0 C3 8.91 3 17.82 3 27 C2.01 27 1.02 27 0 27 C0 18.09 0 9.18 0 0 Z " fill="#5D5875" transform="translate(134,237)"/>
<path d="M0 0 C0.33 0 0.66 0 1 0 C1.81062184 4.96666715 2.13513843 9.70106121 2.125 14.75 C2.12757813 16.04421875 2.13015625 17.3384375 2.1328125 18.671875 C2 22 2 22 1 25 C0.34 25 -0.32 25 -1 25 C-1.0289337 21.20834926 -1.04677601 17.41672673 -1.0625 13.625 C-1.07087891 12.54476562 -1.07925781 11.46453125 -1.08789062 10.3515625 C-1.09111328 9.3203125 -1.09433594 8.2890625 -1.09765625 7.2265625 C-1.10289307 6.27346191 -1.10812988 5.32036133 -1.11352539 4.33837891 C-1 2 -1 2 0 0 Z " fill="#020202" transform="translate(315,219)"/>
<path d="M0 0 C1.65 0 3.3 0 5 0 C5.33 0.66 5.66 1.32 6 2 C5.01 2 4.02 2 3 2 C3 2.99 3 3.98 3 5 C0.525 4.505 0.525 4.505 -2 4 C-2 5.65 -2 7.3 -2 9 C-2.721875 8.9175 -3.44375 8.835 -4.1875 8.75 C-7.85420076 9.07592896 -9.23331546 10.65895924 -12 13 C-14.1875 13.875 -14.1875 13.875 -16 14 C-16.66 13.34 -17.32 12.68 -18 12 C-16.14375 11.319375 -16.14375 11.319375 -14.25 10.625 C-11.40754505 9.5615993 -8.67336954 8.44807517 -6 7 C-6 6.34 -6 5.68 -6 5 C-2.53846154 2 -2.53846154 2 0 2 C0 1.34 0 0.68 0 0 Z " fill="#1CBDDC" transform="translate(128,169)"/>
<path d="M0 0 C1.2065625 0.0309375 1.2065625 0.0309375 2.4375 0.0625 C2.4375 2.0425 2.4375 4.0225 2.4375 6.0625 C-0.57281744 6.99673645 -1.42900268 7.10699911 -4.5625 6.0625 C-3.48963568 0.08511307 -3.48963568 0.08511307 0 0 Z " fill="#01C0DD" transform="translate(129.5625,219.9375)"/>
<path d="M0 0 C1.06734375 0.58007812 2.1346875 1.16015625 3.234375 1.7578125 C4.31203125 2.33273438 5.3896875 2.90765625 6.5 3.5 C7.31984375 3.95632812 8.1396875 4.41265625 8.984375 4.8828125 C7.994375 5.5428125 7.004375 6.2028125 5.984375 6.8828125 C5.984375 6.2228125 5.984375 5.5628125 5.984375 4.8828125 C3.344375 4.8828125 0.704375 4.8828125 -2.015625 4.8828125 C-2.345625 4.2228125 -2.675625 3.5628125 -3.015625 2.8828125 C-2.355625 2.8828125 -1.695625 2.8828125 -1.015625 2.8828125 C-1.015625 2.2228125 -1.015625 1.5628125 -1.015625 0.8828125 C-2.005625 0.8828125 -2.995625 0.8828125 -4.015625 0.8828125 C-4.345625 1.5428125 -4.675625 2.2028125 -5.015625 2.8828125 C-5.675625 2.2228125 -6.335625 1.5628125 -7.015625 0.8828125 C-4.18033277 -1.19548423 -3.37533967 -1.25044967 0 0 Z " fill="#6E7CB8" transform="translate(96.015625,219.1171875)"/>
<path d="M0 0 C1.41702513 0.14230808 2.8336096 0.28900746 4.25 0.4375 C5.43335937 0.55931641 5.43335937 0.55931641 6.640625 0.68359375 C8.82364639 0.97634993 10.8773182 1.42064419 13 2 C13 2.66 13 3.32 13 4 C11 5.3125 11 5.3125 8 6 C5.07502627 4.6916014 2.49862724 3.00262183 0 1 C0 0.67 0 0.34 0 0 Z " fill="#5460A7" transform="translate(85,290)"/>
<path d="M0 0 C0 0.66 0 1.32 0 2 C0.66 2.33 1.32 2.66 2 3 C0.56705502 3.84114171 -0.87154405 4.67265687 -2.3125 5.5 C-3.51326172 6.19609375 -3.51326172 6.19609375 -4.73828125 6.90625 C-7 8 -7 8 -10 8 C-8.48502075 3.75805811 -4.70198172 0 0 0 Z " fill="#4754A2" transform="translate(125,274)"/>
<path d="M0 0 C2.31 0.33 4.62 0.66 7 1 C7.33 2.32 7.66 3.64 8 5 C9.32 5 10.64 5 12 5 C12 5.99 12 6.98 12 8 C7.69235185 6.43358249 3.93828536 4.31663844 0 2 C0 1.34 0 0.68 0 0 Z " fill="#332D4E" transform="translate(140,265)"/>
<path d="M0 0 C2.97 0.495 2.97 0.495 6 1 C6 1.66 6 2.32 6 3 C7.65 3 9.3 3 11 3 C11.33 3.99 11.66 4.98 12 6 C15.465 5.505 15.465 5.505 19 5 C17.8125 6.5625 17.8125 6.5625 16 8 C11.8561253 7.59712329 8.77627335 5.96969696 5.1875 3.9375 C4.21167969 3.38964844 3.23585938 2.84179688 2.23046875 2.27734375 C1.49441406 1.85582031 0.75835937 1.43429688 0 1 C0 0.67 0 0.34 0 0 Z " fill="#90CEE1" transform="translate(117,224)"/>
<path d="M0 0 C2 1 2 1 3 3 C-0.63 4.98 -4.26 6.96 -8 9 C-8 8.01 -8 7.02 -8 6 C-7.34 6 -6.68 6 -6 6 C-6 5.34 -6 4.68 -6 4 C-4.03852126 2.61061923 -2.03833424 1.2739589 0 0 Z " fill="#5E6DAE" transform="translate(112,281)"/>
<path d="M0 0 C0.33 0 0.66 0 1 0 C1 5.61 1 11.22 1 17 C0.01 17 -0.98 17 -2 17 C-2 13.37 -2 9.74 -2 6 C-1.67 6 -1.34 6 -1 6 C-0.67 4.02 -0.34 2.04 0 0 Z " fill="#4F5DAA" transform="translate(61,248)"/>
<path d="M0 0 C0.66 0 1.32 0 2 0 C2.09945415 6.11090483 2.0712828 11.97403427 1 18 C0.67 18 0.34 18 0 18 C-0.83288874 11.74692761 -1.03863773 6.23182639 0 0 Z " fill="#3E4C99" transform="translate(60,237)"/>
<path d="M0 0 C1.98 0.66 3.96 1.32 6 2 C6 2.99 6 3.98 6 5 C4.1875 5.625 4.1875 5.625 2 6 C1.01 5.34 0.02 4.68 -1 4 C-0.67 2.68 -0.34 1.36 0 0 Z " fill="#00C0DF" transform="translate(116,216)"/>
<path d="M0 0 C0 3 0 3 -1.3125 4.6875 C-3 6 -3 6 -6 6 C-6.33 6.66 -6.66 7.32 -7 8 C-7.3125 5.6875 -7.3125 5.6875 -7 3 C-4.6167054 1.18116991 -3.04181663 0 0 0 Z " fill="#495BAC" transform="translate(69,233)"/>
<path d="M0 0 C0.66 0.33 1.32 0.66 2 1 C-2.05387741 5.81397943 -5.0217942 6.88541926 -11 8 C-9.66566859 5.33133717 -8.11620897 4.82425634 -5.5 3.4375 C-2.55848713 1.98363365 -2.55848713 1.98363365 0 0 Z " fill="#6D78AF" transform="translate(80,225)"/>
<path d="M0 0 C1.32 0.33 2.64 0.66 4 1 C4 2.65 4 4.3 4 6 C2.68 6 1.36 6 0 6 C0 4.02 0 2.04 0 0 Z " fill="#00C0E0" transform="translate(125,183)"/>
<path d="M0 0 C1.65 0 3.3 0 5 0 C5.33 0.66 5.66 1.32 6 2 C5.01 2 4.02 2 3 2 C3 2.99 3 3.98 3 5 C0.03 4.505 0.03 4.505 -3 4 C-2.67 3.34 -2.34 2.68 -2 2 C-1.34 2 -0.68 2 0 2 C0 1.34 0 0.68 0 0 Z " fill="#30BBD6" transform="translate(128,169)"/>
<path d="M0 0 C5.4770206 2.16798732 5.4770206 2.16798732 7.375 5.1875 C7.58125 5.785625 7.7875 6.38375 8 7 C4.00499382 5.6302836 1.19990508 3.74277578 -2 1 C-1.34 0.67 -0.68 0.34 0 0 Z " fill="#6875B3" transform="translate(65,277)"/>
<path d="M0 0 C0 0.66 0 1.32 0 2 C-2.75 4.1875 -2.75 4.1875 -6 6 C-8.203125 5.61328125 -8.203125 5.61328125 -10 5 C-8.71186658 4.16121545 -7.41936744 3.32913217 -6.125 2.5 C-5.40570313 2.0359375 -4.68640625 1.571875 -3.9453125 1.09375 C-2 0 -2 0 0 0 Z " fill="#83CBDA" transform="translate(128,169)"/>
<path d="M0 0 C0.33 0 0.66 0 1 0 C1 2.64 1 5.28 1 8 C0.34 7.67 -0.32 7.34 -1 7 C-1.99 7.99 -2.98 8.98 -4 10 C-3.34 7.69 -2.68 5.38 -2 3 C-1.34 3 -0.68 3 0 3 C0 2.01 0 1.02 0 0 Z " fill="#4B4B4B" transform="translate(316,241)"/>
<path d="M0 0 C0.99 0 1.98 0 3 0 C2.67 1.98 2.34 3.96 2 6 C0.35 6.33 -1.3 6.66 -3 7 C-2.01 4.69 -1.02 2.38 0 0 Z " fill="#3B3B3B" transform="translate(402,237)"/>
<path d="M0 0 C-0.33 0.66 -0.66 1.32 -1 2 C-3.06640625 2.4140625 -3.06640625 2.4140625 -5.5625 2.625 C-6.38878906 2.69976562 -7.21507812 2.77453125 -8.06640625 2.8515625 C-9.02353516 2.92503906 -9.02353516 2.92503906 -10 3 C-10 2.34 -10 1.68 -10 1 C-3.71428571 -1.42857143 -3.71428571 -1.42857143 0 0 Z " fill="#4BB8CF" transform="translate(139,227)"/>
<path d="M0 0 C0.33 0.99 0.66 1.98 1 3 C0.67 3.66 0.34 4.32 0 5 C-1.65 5 -3.3 5 -5 5 C-4.67 3.68 -4.34 2.36 -4 1 C-2.68 0.67 -1.36 0.34 0 0 Z " fill="#828282" transform="translate(411,250)"/>
<path d="M0 0 C2.875 0.1875 2.875 0.1875 6 1 C7.375 3.5625 7.375 3.5625 8 6 C6.68 5.67 5.36 5.34 4 5 C4 4.34 4 3.68 4 3 C2.68 2.34 1.36 1.68 0 1 C0 0.67 0 0.34 0 0 Z " fill="#575369" transform="translate(170,233)"/>
<path d="M0 0 C1.98 0 3.96 0 6 0 C5.67 1.32 5.34 2.64 5 4 C3.35 4 1.7 4 0 4 C0 2.68 0 1.36 0 0 Z " fill="#676767" transform="translate(306,251)"/>
<path d="M0 0 C1.98 0 3.96 0 6 0 C6 1.32 6 2.64 6 4 C4.02 4 2.04 4 0 4 C0.99 3.67 1.98 3.34 3 3 C3 2.34 3 1.68 3 1 C2.01 0.67 1.02 0.34 0 0 Z " fill="#858585" transform="translate(382,205)"/>
<path d="M0 0 C1.98 0 3.96 0 6 0 C6 0.66 6 1.32 6 2 C4.35 2.66 2.7 3.32 1 4 C0.34 3.34 -0.32 2.68 -1 2 C-0.67 1.34 -0.34 0.68 0 0 Z " fill="#6B71AE" transform="translate(92,292)"/>
<path d="M0 0 C0.33 0.66 0.66 1.32 1 2 C1.66 2.33 2.32 2.66 3 3 C0.625 4.5625 0.625 4.5625 -2 6 C-2.66 5.67 -3.32 5.34 -4 5 C-2.25 1.125 -2.25 1.125 0 0 Z " fill="#737CBA" transform="translate(119,277)"/>
<path d="M0 0 C2.875 0.25 2.875 0.25 6 1 C7.375 3.0625 7.375 3.0625 8 5 C4.62496331 3.8141763 2.35277269 2.72426311 0 0 Z " fill="#8CD1DD" transform="translate(109,219)"/>
<path d="M0 0 C1.98 0 3.96 0 6 0 C5.67 0.99 5.34 1.98 5 3 C3.35 3 1.7 3 0 3 C0 2.01 0 1.02 0 0 Z " fill="#1EBDE2" transform="translate(113,207)"/>
<path d="M0 0 C0.66 0.33 1.32 0.66 2 1 C0.25 3.0625 0.25 3.0625 -2 5 C-4.25 4.75 -4.25 4.75 -6 4 C-4.02 2.68 -2.04 1.36 0 0 Z " fill="#88C9D8" transform="translate(112,177)"/>
<path d="" fill="#000000" transform="translate(0,0)"/>
<path d="" fill="#FFFFFF" transform="translate(0,0)"/>
</svg>
